<svg id="document-text-sharp" xmlns="http://www.w3.org/2000/svg" width="20" height="25" viewBox="0 0 20 25">
  <path id="Path_47" data-name="Path 47" d="M272,39.8v8.464a.231.231,0,0,0,.231.231h8.463a.116.116,0,0,0,.082-.2l-8.58-8.58a.116.116,0,0,0-.2.082Z" transform="translate(-261.255 -39.244)"/>
  <path id="Path_48" data-name="Path 48" d="M89.545,42.714a.451.451,0,0,1-.455-.446V32H80.682a.676.676,0,0,0-.682.67V56.33a.676.676,0,0,0,.682.67H99.318a.676.676,0,0,0,.682-.67V42.714Zm5.909,8.929H84.545V49.857H95.455Zm0-4.464H84.545V45.393H95.455Z" transform="translate(-80 -32)"/>
</svg>