<svg xmlns="http://www.w3.org/2000/svg" width="25.67" height="21.719" viewBox="0 0 25.67 21.719">
  <g id="options-sharp" transform="translate(-48 -80.014)">
    <path id="Path_49" data-name="Path 49" d="M68.564,81.987a2.962,2.962,0,0,0-5.584,0H48v1.975H62.979a2.962,2.962,0,0,0,5.584,0H73.67V81.987Z" transform="translate(0 0)" fill="#9c9d9d"/>
    <path id="Path_50" data-name="Path 50" d="M55.9,208a2.967,2.967,0,0,0-2.792,1.975H48v1.975h5.106a2.962,2.962,0,0,0,5.584,0H73.67v-1.975H58.691A2.967,2.967,0,0,0,55.9,208Z" transform="translate(0 -120.089)" fill="#9c9d9d"/>
    <path id="Path_51" data-name="Path 51" d="M65.771,336a2.967,2.967,0,0,0-2.792,1.975H48v1.975H62.979a2.962,2.962,0,0,0,5.584,0H73.67v-1.975H68.564A2.967,2.967,0,0,0,65.771,336Z" transform="translate(0 -240.19)" fill="#9c9d9d"/>
  </g>
</svg>
